0
SECTION
2
HEADER
9
$ACADVER
1
AC1009
0
ENDSEC
0
SECTION
2
TABLES
0
TABLE
2
LAYER
70
9
0
LAYER
2
PSY-DRYBULB
70
0
62
8
6
CONTINUOUS
0
LAYER
2
PSY-HUMRATIO
70
0
62
8
6
CONTINUOUS
0
LAYER
2
PSY-RH
70
0
62
3
6
CONTINUOUS
0
LAYER
2
PSY-WETBULB
70
0
62
5
6
CONTINUOUS
0
LAYER
2
PSY-ENTHALPY
70
0
62
30
6
CONTINUOUS
0
LAYER
2
PSY-VOLUME
70
0
62
6
6
CONTINUOUS
0
LAYER
2
PSY-SATURATION
70
0
62
3
6
CONTINUOUS
0
LAYER
2
PSY-POINTS
70
0
62
1
6
CONTINUOUS
0
LAYER
2
PSY-PROCESS
70
0
62
5
6
CONTINUOUS
0
ENDTAB
0
ENDSEC
0
SECTION
2
ENTITIES
0
LWPOLYLINE
8
PSY-DRYBULB
100
AcDbEntity
100
AcDbPolyline
90
2
70
0
10
-10.060000
20
0.000000
10
-10.089566
20
1.606854
0
LWPOLYLINE
8
PSY-DRYBULB
100
AcDbEntity
100
AcDbPolyline
90
2
70
0
10
-9.054000
20
0.000000
10
-9.083077
20
1.755876
0
LWPOLYLINE
8
PSY-DRYBULB
100
AcDbEntity
100
AcDbPolyline
90
2
70
0
10
-8.048000
20
0.000000
10
-8.076225
20
1.917469
0
LWPOLYLINE
8
PSY-DRYBULB
100
AcDbEntity
100
AcDbPolyline
90
2
70
0
10
-7.042000
20
0.000000
10
-7.068953
20
2.092589
0
LWPOLYLINE
8
PSY-DRYBULB
100
AcDbEntity
100
AcDbPolyline
90
2
70
0
10
-6.036000
20
0.000000
10
-6.061196
20
2.282255
0
LWPOLYLINE
8
PSY-DRYBULB
100
AcDbEntity
100
AcDbPolyline
90
2
70
0
10
-5.030000
20
0.000000
10
-5.052886
20
2.487557
0
LWPOLYLINE
8
PSY-DRYBULB
100
AcDbEntity
100
AcDbPolyline
90
2
70
0
10
-4.024000
20
0.000000
10
-4.043943
20
2.709659
0
LWPOLYLINE
8
PSY-DRYBULB
100
AcDbEntity
100
AcDbPolyline
90
2
70
0
10
-3.018000
20
0.000000
10
-3.034283
20
2.949800
0
LWPOLYLINE
8
PSY-DRYBULB
100
AcDbEntity
100
AcDbPolyline
90
2
70
0
10
-2.012000
20
0.000000
10
-2.023810
20
3.209303
0
LWPOLYLINE
8
PSY-DRYBULB
100
AcDbEntity
100
AcDbPolyline
90
2
70
0
10
-1.006000
20
0.000000
10
-1.012421
20
3.489580
0
LWPOLYLINE
8
PSY-DRYBULB
100
AcDbEntity
100
AcDbPolyline
90
2
70
0
10
0.000000
20
0.000000
10
0.000000
20
3.792503
0
LWPOLYLINE
8
PSY-DRYBULB
100
AcDbEntity
100
AcDbPolyline
90
2
70
0
10
1.006000
20
0.000000
10
1.013505
20
4.079021
0
LWPOLYLINE
8
PSY-DRYBULB
100
AcDbEntity
100
AcDbPolyline
90
2
70
0
10
2.012000
20
0.000000
10
2.028136
20
4.384718
0
LWPOLYLINE
8
PSY-DRYBULB
100
AcDbEntity
100
AcDbPolyline
90
2
70
0
10
3.018000
20
0.000000
10
3.044003
20
4.710715
0
LWPOLYLINE
8
PSY-DRYBULB
100
AcDbEntity
100
AcDbPolyline
90
2
70
0
10
4.024000
20
0.000000
10
4.061228
20
5.058189
0
LWPOLYLINE
8
PSY-DRYBULB
100
AcDbEntity
100
AcDbPolyline
90
2
70
0
10
5.030000
20
0.000000
10
5.079941
20
5.428379
0
LWPOLYLINE
8
PSY-DRYBULB
100
AcDbEntity
100
AcDbPolyline
90
2
70
0
10
6.036000
20
0.000000
10
6.100281
20
5.822585
0
LWPOLYLINE
8
PSY-DRYBULB
100
AcDbEntity
100
AcDbPolyline
90
2
70
0
10
7.042000
20
0.000000
10
7.122399
20
6.242173
0
LWPOLYLINE
8
PSY-DRYBULB
100
AcDbEntity
100
AcDbPolyline
90
2
70
0
10
8.048000
20
0.000000
10
8.146456
20
6.688577
0
LWPOLYLINE
8
PSY-DRYBULB
100
AcDbEntity
100
AcDbPolyline
90
2
70
0
10
9.054000
20
0.000000
10
9.172624
20
7.163304
0
LWPOLYLINE
8
PSY-DRYBULB
100
AcDbEntity
100
AcDbPolyline
90
2
70
0
10
10.060000
20
0.000000
10
10.201090
20
7.667935
0
LWPOLYLINE
8
PSY-DRYBULB
100
AcDbEntity
100
AcDbPolyline
90
2
70
0
10
11.066000
20
0.000000
10
11.232052
20
8.204132
0
LWPOLYLINE
8
PSY-DRYBULB
100
AcDbEntity
100
AcDbPolyline
90
2
70
0
10
12.072000
20
0.000000
10
12.265722
20
8.773639
0
LWPOLYLINE
8
PSY-DRYBULB
100
AcDbEntity
100
AcDbPolyline
90
2
70
0
10
13.078000
20
0.000000
10
13.302329
20
9.378287
0
LWPOLYLINE
8
PSY-DRYBULB
100
AcDbEntity
100
AcDbPolyline
90
2
70
0
10
14.084000
20
0.000000
10
14.342115
20
10.019999
0
LWPOLYLINE
8
PSY-DRYBULB
100
AcDbEntity
100
AcDbPolyline
90
2
70
0
10
15.090000
20
0.000000
10
15.385342
20
10.700796
0
LWPOLYLINE
8
PSY-DRYBULB
100
AcDbEntity
100
AcDbPolyline
90
2
70
0
10
16.096000
20
0.000000
10
16.432287
20
11.422799
0
LWPOLYLINE
8
PSY-DRYBULB
100
AcDbEntity
100
AcDbPolyline
90
2
70
0
10
17.102000
20
0.000000
10
17.483248
20
12.188236
0
LWPOLYLINE
8
PSY-DRYBULB
100
AcDbEntity
100
AcDbPolyline
90
2
70
0
10
18.108000
20
0.000000
10
18.538542
20
12.999449
0
LWPOLYLINE
8
PSY-DRYBULB
100
AcDbEntity
100
AcDbPolyline
90
2
70
0
10
19.114000
20
0.000000
10
19.598507
20
13.858897
0
LWPOLYLINE
8
PSY-DRYBULB
100
AcDbEntity
100
AcDbPolyline
90
2
70
0
10
20.120000
20
0.000000
10
20.663505
20
14.769167
0
LWPOLYLINE
8
PSY-DRYBULB
100
AcDbEntity
100
AcDbPolyline
90
2
70
0
10
21.126000
20
0.000000
10
21.733922
20
15.732978
0
LWPOLYLINE
8
PSY-DRYBULB
100
AcDbEntity
100
AcDbPolyline
90
2
70
0
10
22.132000
20
0.000000
10
22.810169
20
16.753187
0
LWPOLYLINE
8
PSY-DRYBULB
100
AcDbEntity
100
AcDbPolyline
90
2
70
0
10
23.138000
20
0.000000
10
23.892684
20
17.832804
0
LWPOLYLINE
8
PSY-DRYBULB
100
AcDbEntity
100
AcDbPolyline
90
2
70
0
10
24.144000
20
0.000000
10
24.981936
20
18.974994
0
LWPOLYLINE
8
PSY-DRYBULB
100
AcDbEntity
100
AcDbPolyline
90
2
70
0
10
25.150000
20
0.000000
10
26.078422
20
20.183090
0
LWPOLYLINE
8
PSY-DRYBULB
100
AcDbEntity
100
AcDbPolyline
90
2
70
0
10
26.156000
20
0.000000
10
27.182675
20
21.460601
0
LWPOLYLINE
8
PSY-DRYBULB
100
AcDbEntity
100
AcDbPolyline
90
2
70
0
10
27.162000
20
0.000000
10
28.295262
20
22.811227
0
LWPOLYLINE
8
PSY-DRYBULB
100
AcDbEntity
100
AcDbPolyline
90
2
70
0
10
28.168000
20
0.000000
10
29.416787
20
24.238869
0
LWPOLYLINE
8
PSY-DRYBULB
100
AcDbEntity
100
AcDbPolyline
90
2
70
0
10
29.174000
20
0.000000
10
30.547894
20
25.747640
0
LWPOLYLINE
8
PSY-DRYBULB
100
AcDbEntity
100
AcDbPolyline
90
2
70
0
10
30.180000
20
0.000000
10
31.689272
20
27.341883
0
LWPOLYLINE
8
PSY-DRYBULB
100
AcDbEntity
100
AcDbPolyline
90
2
70
0
10
31.186000
20
0.000000
10
32.841654
20
29.026186
0
LWPOLYLINE
8
PSY-DRYBULB
100
AcDbEntity
100
AcDbPolyline
90
2
70
0
10
32.192000
20
0.000000
10
33.958400
20
30.000000
0
LWPOLYLINE
8
PSY-DRYBULB
100
AcDbEntity
100
AcDbPolyline
90
2
70
0
10
33.198000
20
0.000000
10
35.019600
20
30.000000
0
LWPOLYLINE
8
PSY-DRYBULB
100
AcDbEntity
100
AcDbPolyline
90
2
70
0
10
34.204000
20
0.000000
10
36.080800
20
30.000000
0
LWPOLYLINE
8
PSY-DRYBULB
100
AcDbEntity
100
AcDbPolyline
90
2
70
0
10
35.210000
20
0.000000
10
37.142000
20
30.000000
0
LWPOLYLINE
8
PSY-DRYBULB
100
AcDbEntity
100
AcDbPolyline
90
2
70
0
10
36.216000
20
0.000000
10
38.203200
20
30.000000
0
LWPOLYLINE
8
PSY-DRYBULB
100
AcDbEntity
100
AcDbPolyline
90
2
70
0
10
37.222000
20
0.000000
10
39.264400
20
30.000000
0
LWPOLYLINE
8
PSY-DRYBULB
100
AcDbEntity
100
AcDbPolyline
90
2
70
0
10
38.228000
20
0.000000
10
40.325600
20
30.000000
0
LWPOLYLINE
8
PSY-DRYBULB
100
AcDbEntity
100
AcDbPolyline
90
2
70
0
10
39.234000
20
0.000000
10
41.386800
20
30.000000
0
LWPOLYLINE
8
PSY-DRYBULB
100
AcDbEntity
100
AcDbPolyline
90
2
70
0
10
40.240000
20
0.000000
10
42.448000
20
30.000000
0
LWPOLYLINE
8
PSY-DRYBULB
100
AcDbEntity
100
AcDbPolyline
90
2
70
0
10
41.246000
20
0.000000
10
43.509200
20
30.000000
0
LWPOLYLINE
8
PSY-DRYBULB
100
AcDbEntity
100
AcDbPolyline
90
2
70
0
10
42.252000
20
0.000000
10
44.570400
20
30.000000
0
LWPOLYLINE
8
PSY-DRYBULB
100
AcDbEntity
100
AcDbPolyline
90
2
70
0
10
43.258000
20
0.000000
10
45.631600
20
30.000000
0
LWPOLYLINE
8
PSY-DRYBULB
100
AcDbEntity
100
AcDbPolyline
90
2
70
0
10
44.264000
20
0.000000
10
46.692800
20
30.000000
0
LWPOLYLINE
8
PSY-DRYBULB
100
AcDbEntity
100
AcDbPolyline
90
2
70
0
10
45.270000
20
0.000000
10
47.754000
20
30.000000
0
LWPOLYLINE
8
PSY-DRYBULB
100
AcDbEntity
100
AcDbPolyline
90
2
70
0
10
46.276000
20
0.000000
10
48.815200
20
30.000000
0
LWPOLYLINE
8
PSY-DRYBULB
100
AcDbEntity
100
AcDbPolyline
90
2
70
0
10
47.282000
20
0.000000
10
49.876400
20
30.000000
0
LWPOLYLINE
8
PSY-DRYBULB
100
AcDbEntity
100
AcDbPolyline
90
2
70
0
10
48.288000
20
0.000000
10
50.937600
20
30.000000
0
LWPOLYLINE
8
PSY-DRYBULB
100
AcDbEntity
100
AcDbPolyline
90
2
70
0
10
49.294000
20
0.000000
10
51.998800
20
30.000000
0
LWPOLYLINE
8
PSY-DRYBULB
100
AcDbEntity
100
AcDbPolyline
90
2
70
0
10
50.300000
20
0.000000
10
53.060000
20
30.000000
0
LWPOLYLINE
8
PSY-HUMRATIO
100
AcDbEntity
100
AcDbPolyline
90
2
70
0
10
-10.060000
20
0.000000
10
50.300000
20
0.000000
0
LWPOLYLINE
8
PSY-HUMRATIO
100
AcDbEntity
100
AcDbPolyline
90
2
70
0
10
-10.078400
20
1.000000
10
50.392000
20
1.000000
0
LWPOLYLINE
8
PSY-HUMRATIO
100
AcDbEntity
100
AcDbPolyline
90
2
70
0
10
-7.591508
20
2.000000
10
50.484000
20
2.000000
0
LWPOLYLINE
8
PSY-HUMRATIO
100
AcDbEntity
100
AcDbPolyline
90
2
70
0
10
-2.832684
20
3.000000
10
50.576000
20
3.000000
0
LWPOLYLINE
8
PSY-HUMRATIO
100
AcDbEntity
100
AcDbPolyline
90
2
70
0
10
0.740391
20
4.000000
10
50.668000
20
4.000000
0
LWPOLYLINE
8
PSY-HUMRATIO
100
AcDbEntity
100
AcDbPolyline
90
2
70
0
10
3.895223
20
5.000000
10
50.760000
20
5.000000
0
LWPOLYLINE
8
PSY-HUMRATIO
100
AcDbEntity
100
AcDbPolyline
90
2
70
0
10
6.540017
20
6.000000
10
50.852000
20
6.000000
0
LWPOLYLINE
8
PSY-HUMRATIO
100
AcDbEntity
100
AcDbPolyline
90
2
70
0
10
8.826429
20
7.000000
10
50.944000
20
7.000000
0
LWPOLYLINE
8
PSY-HUMRATIO
100
AcDbEntity
100
AcDbPolyline
90
2
70
0
10
10.846567
20
8.000000
10
51.036000
20
8.000000
0
LWPOLYLINE
8
PSY-HUMRATIO
100
AcDbEntity
100
AcDbPolyline
90
2
70
0
10
12.660718
20
9.000000
10
51.128000
20
9.000000
0
LWPOLYLINE
8
PSY-HUMRATIO
100
AcDbEntity
100
AcDbPolyline
90
2
70
0
10
14.310573
20
10.000000
10
51.220000
20
10.000000
0
LWPOLYLINE
8
PSY-HUMRATIO
100
AcDbEntity
100
AcDbPolyline
90
2
70
0
10
15.826202
20
11.000000
10
51.312000
20
11.000000
0
LWPOLYLINE
8
PSY-HUMRATIO
100
AcDbEntity
100
AcDbPolyline
90
2
70
0
10
17.230029
20
12.000000
10
51.404000
20
12.000000
0
LWPOLYLINE
8
PSY-HUMRATIO
100
AcDbEntity
100
AcDbPolyline
90
2
70
0
10
18.539240
20
13.000000
10
51.496000
20
13.000000
0
LWPOLYLINE
8
PSY-HUMRATIO
100
AcDbEntity
100
AcDbPolyline
90
2
70
0
10
19.767300
20
14.000000
10
51.588000
20
14.000000
0
LWPOLYLINE
8
PSY-HUMRATIO
100
AcDbEntity
100
AcDbPolyline
90
2
70
0
10
20.924969
20
15.000000
10
51.680000
20
15.000000
0
LWPOLYLINE
8
PSY-HUMRATIO
100
AcDbEntity
100
AcDbPolyline
90
2
70
0
10
22.020977
20
16.000000
10
51.772000
20
16.000000
0
LWPOLYLINE
8
PSY-HUMRATIO
100
AcDbEntity
100
AcDbPolyline
90
2
70
0
10
23.062513
20
17.000000
10
51.864000
20
17.000000
0
LWPOLYLINE
8
PSY-HUMRATIO
100
AcDbEntity
100
AcDbPolyline
90
2
70
0
10
24.055568
20
18.000000
10
51.956000
20
18.000000
0
LWPOLYLINE
8
PSY-HUMRATIO
100
AcDbEntity
100
AcDbPolyline
90
2
70
0
10
25.005188
20
19.000000
10
52.048000
20
19.000000
0
LWPOLYLINE
8
PSY-HUMRATIO
100
AcDbEntity
100
AcDbPolyline
90
2
70
0
10
25.915664
20
20.000000
10
52.140000
20
20.000000
0
LWPOLYLINE
8
PSY-HUMRATIO
100
AcDbEntity
100
AcDbPolyline
90
2
70
0
10
26.790678
20
21.000000
10
52.232000
20
21.000000
0
LWPOLYLINE
8
PSY-HUMRATIO
100
AcDbEntity
100
AcDbPolyline
90
2
70
0
10
27.633411
20
22.000000
10
52.324000
20
22.000000
0
LWPOLYLINE
8
PSY-HUMRATIO
100
AcDbEntity
100
AcDbPolyline
90
2
70
0
10
28.446633
20
23.000000
10
52.416000
20
23.000000
0
LWPOLYLINE
8
PSY-HUMRATIO
100
AcDbEntity
100
AcDbPolyline
90
2
70
0
10
29.232769
20
24.000000
10
52.508000
20
24.000000
0
LWPOLYLINE
8
PSY-HUMRATIO
100
AcDbEntity
100
AcDbPolyline
90
2
70
0
10
29.993958
20
25.000000
10
52.600000
20
25.000000
0
LWPOLYLINE
8
PSY-HUMRATIO
100
AcDbEntity
100
AcDbPolyline
90
2
70
0
10
30.732090
20
26.000000
10
52.692000
20
26.000000
0
LWPOLYLINE
8
PSY-HUMRATIO
100
AcDbEntity
100
AcDbPolyline
90
2
70
0
10
31.448851
20
27.000000
10
52.784000
20
27.000000
0
LWPOLYLINE
8
PSY-HUMRATIO
100
AcDbEntity
100
AcDbPolyline
90
2
70
0
10
32.145747
20
28.000000
10
52.876000
20
28.000000
0
LWPOLYLINE
8
PSY-HUMRATIO
100
AcDbEntity
100
AcDbPolyline
90
2
70
0
10
32.824127
20
29.000000
10
52.968000
20
29.000000
0
LWPOLYLINE
8
PSY-HUMRATIO
100
AcDbEntity
100
AcDbPolyline
90
2
70
0
10
33.485211
20
30.000000
10
53.060000
20
30.000000
0
LWPOLYLINE
8
PSY-ENTHALPY
100
AcDbEntity
100
AcDbPolyline
90
2
70
0
10
-5.809085
20
2.323764
10
0.000000
20
0.000000
0
LWPOLYLINE
8
PSY-ENTHALPY
100
AcDbEntity
100
AcDbPolyline
90
2
70
0
10
-2.528854
20
3.011710
10
4.779272
20
0.088296
0
LWPOLYLINE
8
PSY-ENTHALPY
100
AcDbEntity
100
AcDbPolyline
90
2
70
0
10
0.506494
20
3.797615
10
9.809864
20
0.076058
0
LWPOLYLINE
8
PSY-ENTHALPY
100
AcDbEntity
100
AcDbPolyline
90
2
70
0
10
3.297494
20
4.681265
10
14.840235
20
0.063910
0
LWPOLYLINE
8
PSY-ENTHALPY
100
AcDbEntity
100
AcDbPolyline
90
2
70
0
10
5.844410
20
5.662553
10
19.870384
20
0.051849
0
LWPOLYLINE
8
PSY-ENTHALPY
100
AcDbEntity
100
AcDbPolyline
90
2
70
0
10
8.400299
20
6.640252
10
24.900316
20
0.039876
0
LWPOLYLINE
8
PSY-ENTHALPY
100
AcDbEntity
100
AcDbPolyline
90
2
70
0
10
10.712066
20
7.715606
10
29.930032
20
0.027989
0
LWPOLYLINE
8
PSY-ENTHALPY
100
AcDbEntity
100
AcDbPolyline
90
2
70
0
10
12.779441
20
8.888722
10
34.959535
20
0.016187
0
LWPOLYLINE
8
PSY-ENTHALPY
100
AcDbEntity
100
AcDbPolyline
90
2
70
0
10
14.601890
20
10.159813
10
39.988827
20
0.004469
0
LWPOLYLINE
8
PSY-ENTHALPY
100
AcDbEntity
100
AcDbPolyline
90
2
70
0
10
16.686153
20
11.326173
10
44.774390
20
0.090249
0
LWPOLYLINE
8
PSY-ENTHALPY
100
AcDbEntity
100
AcDbPolyline
90
2
70
0
10
18.271030
20
12.692299
10
49.804136
20
0.078350
0
LWPOLYLINE
8
PSY-ENTHALPY
100
AcDbEntity
100
AcDbPolyline
90
2
70
0
10
19.863344
20
14.055449
10
50.466830
20
1.813370
0
LWPOLYLINE
8
PSY-ENTHALPY
100
AcDbEntity
100
AcDbPolyline
90
2
70
0
10
21.463069
20
15.415636
10
50.644309
20
3.742486
0
LWPOLYLINE
8
PSY-ENTHALPY
100
AcDbEntity
100
AcDbPolyline
90
2
70
0
10
23.070181
20
16.772867
10
50.821787
20
5.671603
0
LWPOLYLINE
8
PSY-ENTHALPY
100
AcDbEntity
100
AcDbPolyline
90
2
70
0
10
24.429236
20
18.229326
10
50.999266
20
7.600719
0
LWPOLYLINE
8
PSY-ENTHALPY
100
AcDbEntity
100
AcDbPolyline
90
2
70
0
10
25.794871
20
19.683154
10
51.176745
20
9.529836
0
LWPOLYLINE
8
PSY-ENTHALPY
100
AcDbEntity
100
AcDbPolyline
90
2
70
0
10
27.167068
20
21.134356
10
51.354224
20
11.458952
0
LWPOLYLINE
8
PSY-ENTHALPY
100
AcDbEntity
100
AcDbPolyline
90
2
70
0
10
28.289024
20
22.685661
10
51.531702
20
13.388069
0
LWPOLYLINE
8
PSY-ENTHALPY
100
AcDbEntity
100
AcDbPolyline
90
2
70
0
10
29.416573
20
24.234728
10
51.709181
20
15.317185
0
LWPOLYLINE
8
PSY-ENTHALPY
100
AcDbEntity
100
AcDbPolyline
90
2
70
0
10
30.807513
20
25.678433
10
51.886660
20
17.246302
0
LWPOLYLINE
8
PSY-ENTHALPY
100
AcDbEntity
100
AcDbPolyline
90
2
70
0
10
31.688404
20
27.326168
10
52.064138
20
19.175418
0
LWPOLYLINE
8
PSY-ENTHALPY
100
AcDbEntity
100
AcDbPolyline
90
2
70
0
10
32.832662
20
28.868552
10
52.241617
20
21.104535
0
LWPOLYLINE
8
PSY-ENTHALPY
100
AcDbEntity
100
AcDbPolyline
90
2
70
0
10
35.019235
20
29.993986
10
52.419096
20
23.033652
0
LWPOLYLINE
8
PSY-ENTHALPY
100
AcDbEntity
100
AcDbPolyline
90
2
70
0
10
40.058783
20
29.978165
10
52.596575
20
24.962768
0
LWPOLYLINE
8
PSY-ENTHALPY
100
AcDbEntity
100
AcDbPolyline
90
2
70
0
10
45.098064
20
29.962452
10
52.774053
20
26.891885
0
LWPOLYLINE
8
PSY-RH
100
AcDbEntity
100
AcDbPolyline
90
96
70
0
10
-10.062950
20
0.160313
10
-9.427554
20
0.169539
10
-8.792145
20
0.179248
10
-8.156720
20
0.189463
10
-7.521279
20
0.200207
10
-6.885821
20
0.211505
10
-6.250342
20
0.223382
10
-5.614842
20
0.235865
10
-4.979319
20
0.248981
10
-4.343771
20
0.262760
10
-3.708195
20
0.277232
10
-3.072590
20
0.292426
10
-2.436953
20
0.308377
10
-1.801281
20
0.325117
10
-1.165572
20
0.342681
10
-0.529823
20
0.361105
10
0.105968
20
0.380077
10
0.741803
20
0.397877
10
1.377680
20
0.416411
10
2.013603
20
0.435707
10
2.649575
20
0.455791
10
3.285599
20
0.476691
10
3.921677
20
0.498435
10
4.557813
20
0.521053
10
5.194010
20
0.544574
10
5.830272
20
0.569029
10
6.466602
20
0.594450
10
7.103004
20
0.620870
10
7.739482
20
0.648322
10
8.376041
20
0.676841
10
9.012683
20
0.706462
10
9.649415
20
0.737221
10
10.286240
20
0.769157
10
10.923163
20
0.802306
10
11.560191
20
0.836709
10
12.197326
20
0.872405
10
12.834577
20
0.909438
10
13.471947
20
0.947847
10
14.109443
20
0.987679
10
14.747071
20
1.028977
10
15.384837
20
1.071787
10
16.022749
20
1.116156
10
16.660812
20
1.162132
10
17.299035
20
1.209766
10
17.937424
20
1.259107
10
18.575988
20
1.310208
10
19.214734
20
1.363122
10
19.853671
20
1.417904
10
20.492807
20
1.474609
10
21.132151
20
1.533294
10
21.771712
20
1.594019
10
22.411500
20
1.656844
10
23.051525
20
1.721829
10
23.691798
20
1.789037
10
24.332328
20
1.858534
10
24.973126
20
1.930385
10
25.614205
20
2.004658
10
26.255575
20
2.081421
10
26.897250
20
2.160746
10
27.539240
20
2.242704
10
28.181561
20
2.327370
10
28.824224
20
2.414818
10
29.467243
20
2.505127
10
30.110634
20
2.598376
10
30.754411
20
2.694644
10
31.398589
20
2.794016
10
32.043183
20
2.896575
10
32.688211
20
3.002408
10
33.333688
20
3.111603
10
33.979632
20
3.224250
10
34.626061
20
3.340441
10
35.272994
20
3.460272
10
35.920449
20
3.583837
10
36.568446
20
3.711235
10
37.217005
20
3.842567
10
37.866146
20
3.977935
10
38.515892
20
4.117445
10
39.166264
20
4.261202
10
39.817284
20
4.409317
10
40.468978
20
4.561901
10
41.121367
20
4.719068
10
41.774478
20
4.880935
10
42.428335
20
5.047619
10
43.082966
20
5.219244
10
43.738396
20
5.395932
10
44.394654
20
5.577810
10
45.051769
20
5.765007
10
45.709770
20
5.957656
10
46.368686
20
6.155890
10
47.028550
20
6.359846
10
47.689394
20
6.569666
10
48.351250
20
6.785492
10
49.014152
20
7.007469
10
49.678135
20
7.235748
10
50.343234
20
7.470481
10
51.009488
20
7.711821
0
LWPOLYLINE
8
PSY-RH
100
AcDbEntity
100
AcDbPolyline
90
96
70
0
10
-10.065901
20
0.320708
10
-9.430478
20
0.339170
10
-8.795028
20
0.358600
10
-8.159548
20
0.379042
10
-7.524034
20
0.400543
10
-6.888485
20
0.423154
10
-6.252897
20
0.446924
10
-5.617265
20
0.471909
10
-4.981587
20
0.498162
10
-4.345859
20
0.525743
10
-3.710076
20
0.554711
10
-3.074234
20
0.585128
10
-2.438328
20
0.617059
10
-1.802353
20
0.650573
10
-1.166303
20
0.685739
10
-0.530173
20
0.722630
10
0.106042
20
0.760619
10
0.742343
20
0.796263
10
1.378730
20
0.833381
10
2.015209
20
0.872025
10
2.651786
20
0.912251
10
3.288466
20
0.954114
10
3.925255
20
0.997670
10
4.562160
20
1.042979
10
5.199188
20
1.090102
10
5.836345
20
1.139100
10
6.473639
20
1.190037
10
7.111077
20
1.242981
10
7.748668
20
1.297997
10
8.386420
20
1.355157
10
9.024340
20
1.414531
10
9.662439
20
1.476192
10
10.300726
20
1.540218
10
10.939210
20
1.606684
10
11.577902
20
1.675672
10
12.216813
20
1.747262
10
12.855952
20
1.821539
10
13.495333
20
1.898588
10
14.134966
20
1.978500
10
14.774865
20
2.061364
10
15.415041
20
2.147273
10
16.055510
20
2.236325
10
16.696283
20
2.328616
10
17.337377
20
2.424247
10
17.978806
20
2.523323
10
18.620585
20
2.625949
10
19.262731
20
2.732233
10
19.905260
20
2.842288
10
20.548191
20
2.956227
10
21.191541
20
3.074168
10
21.835328
20
3.196231
10
22.479573
20
3.322538
10
23.124295
20
3.453217
10
23.769515
20
3.588397
10
24.415255
20
3.728210
10
25.061536
20
3.872791
10
25.708383
20
4.022281
10
26.355819
20
4.176821
10
27.003869
20
4.336558
10
27.652558
20
4.501641
10
28.301913
20
4.672223
10
28.951962
20
4.848461
10
29.602732
20
5.030517
10
30.254253
20
5.218553
10
30.906556
20
5.412740
10
31.559671
20
5.613249
10
32.213631
20
5.820257
10
32.868469
20
6.033944
10
33.524220
20
6.254497
10
34.180920
20
6.482104
10
34.838604
20
6.716959
10
35.497313
20
6.959262
10
36.157083
20
7.209215
10
36.817957
20
7.467027
10
37.479975
20
7.732911
10
38.143182
20
8.007084
10
38.807621
20
8.289770
10
39.473338
20
8.581198
10
40.140381
20
8.881601
10
40.808799
20
9.191219
10
41.478641
20
9.510296
10
42.149961
20
9.839085
10
42.822811
20
10.177841
10
43.497248
20
10.526827
10
44.173327
20
10.886313
10
44.851107
20
11.256573
10
45.530650
20
11.637890
10
46.212017
20
12.030553
10
46.895274
20
12.434857
10
47.580485
20
12.851105
10
48.267720
20
13.279606
10
48.957049
20
13.720677
10
49.648545
20
14.174645
10
50.342282
20
14.641841
10
51.038337
20
15.122606
10
51.736791
20
15.617289
0
LWPOLYLINE
8
PSY-RH
100
AcDbEntity
100
AcDbPolyline
90
96
70
0
10
-10.068854
20
0.481186
10
-9.433404
20
0.508894
10
-8.797913
20
0.538055
10
-8.162377
20
0.568736
10
-7.526791
20
0.601008
10
-6.891152
20
0.634946
10
-6.255453
20
0.670628
10
-5.619690
20
0.708132
10
-4.983858
20
0.747543
10
-4.347949
20
0.788948
10
-3.711959
20
0.832437
10
-3.075880
20
0.878105
10
-2.439704
20
0.926048
10
-1.803425
20
0.976370
10
-1.167035
20
1.029176
10
-0.530524
20
1.084575
10
0.106116
20
1.141627
10
0.742884
20
1.195159
10
1.379781
20
1.250909
10
2.016817
20
1.308956
10
2.653999
20
1.369381
10
3.291336
20
1.432269
10
3.928838
20
1.497707
10
4.566514
20
1.565782
10
5.204374
20
1.636587
10
5.842429
20
1.710216
10
6.480689
20
1.786766
10
7.119167
20
1.866336
10
7.757873
20
1.949030
10
8.396821
20
2.034952
10
9.036024
20
2.124212
10
9.675495
20
2.216920
10
10.315248
20
2.313191
10
10.955299
20
2.413144
10
11.595662
20
2.516898
10
12.236354
20
2.624579
10
12.877391
20
2.736315
10
13.518791
20
2.852236
10
14.160571
20
2.972478
10
14.802751
20
3.097178
10
15.445350
20
3.226480
10
16.088388
20
3.360529
10
16.731887
20
3.499475
10
17.375868
20
3.643472
10
18.020355
20
3.792678
10
18.665370
20
3.947256
10
19.310939
20
4.107372
10
19.957086
20
4.273196
10
20.603839
20
4.444904
10
21.251225
20
4.622676
10
21.899272
20
4.806697
10
22.548010
20
4.997155
10
23.197469
20
5.194246
10
23.847682
20
5.398168
10
24.498680
20
5.609126
10
25.150499
20
5.827330
10
25.803173
20
6.052995
10
26.456739
20
6.286340
10
27.111234
20
6.527594
10
27.766699
20
6.776987
10
28.423173
20
7.034758
10
29.080700
20
7.301151
10
29.739321
20
7.576415
10
30.399082
20
7.860809
10
31.060030
20
8.154594
10
31.722213
20
8.458041
10
32.385681
20
8.771427
10
33.050485
20
9.095035
10
33.716678
20
9.429157
10
34.384316
20
9.774090
10
35.053455
20
10.130141
10
35.724155
20
10.497625
10
36.396476
20
10.876862
10
37.070482
20
11.268183
10
37.746236
20
11.671927
10
38.423807
20
12.088441
10
39.103264
20
12.518080
10
39.784679
20
12.961212
10
40.468125
20
13.418210
10
41.153679
20
13.889458
10
41.841421
20
14.375353
10
42.531432
20
14.876298
10
43.223796
20
15.392708
10
43.918601
20
15.925011
10
44.615937
20
16.473643
10
45.315897
20
17.039054
10
46.018577
20
17.621705
10
46.724075
20
18.222068
10
47.432495
20
18.840631
10
48.143943
20
19.477890
10
48.858528
20
20.134360
10
49.576362
20
20.810566
10
50.297563
20
21.507049
10
51.022251
20
22.224365
10
51.750550
20
22.963083
10
52.482589
20
23.723791
0
LWPOLYLINE
8
PSY-RH
100
AcDbEntity
100
AcDbPolyline
90
94
70
0
10
-10.071808
20
0.641747
10
-9.436331
20
0.678711
10
-8.800799
20
0.717614
10
-8.165207
20
0.758546
10
-7.529550
20
0.801603
10
-6.893820
20
0.846883
10
-6.258011
20
0.894492
10
-5.622117
20
0.944534
10
-4.986130
20
0.997123
10
-4.350041
20
1.052375
10
-3.713843
20
1.110411
10
-3.077527
20
1.171357
10
-2.441082
20
1.235344
10
-1.804499
20
1.302509
10
-1.167767
20
1.372992
10
-0.530875
20
1.446942
10
0.106190
20
1.523101
10
0.743425
20
1.594567
10
1.380834
20
1.668997
10
2.018427
20
1.746500
10
2.656216
20
1.827183
10
3.294212
20
1.911160
10
3.932427
20
1.998546
10
4.570876
20
2.089463
10
5.209570
20
2.184031
10
5.848524
20
2.282380
10
6.487753
20
2.384638
10
7.127272
20
2.490940
10
7.767097
20
2.601424
10
8.407245
20
2.716232
10
9.047734
20
2.835510
10
9.688581
20
2.959409
10
10.329806
20
3.088083
10
10.971429
20
3.221692
10
11.613470
20
3.360397
10
12.255950
20
3.504369
10
12.898892
20
3.653778
10
13.542320
20
3.808804
10
14.186258
20
3.969628
10
14.830730
20
4.136437
10
15.475764
20
4.309425
10
16.121386
20
4.488790
10
16.767625
20
4.674734
10
17.414511
20
4.867468
10
18.062073
20
5.067205
10
18.710345
20
5.274166
10
19.359360
20
5.488578
10
20.009150
20
5.710673
10
20.659753
20
5.940691
10
21.311206
20
6.178877
10
21.963547
20
6.425482
10
22.616815
20
6.680766
10
23.271052
20
6.944995
10
23.926302
20
7.218442
10
24.582609
20
7.501386
10
25.240018
20
7.794116
10
25.898579
20
8.096927
10
26.558340
20
8.410122
10
27.219354
20
8.734014
10
27.881672
20
9.068923
10
28.545352
20
9.415176
10
29.210449
20
9.773111
10
29.877023
20
10.143074
10
30.545137
20
10.525422
10
31.214852
20
10.920520
10
31.886236
20
11.328743
10
32.559356
20
11.750476
10
33.234283
20
12.186115
10
33.911091
20
12.636066
10
34.589854
20
13.100748
10
35.270652
20
13.580588
10
35.953565
20
14.076028
10
36.638677
20
14.587520
10
37.326075
20
15.115530
10
38.015849
20
15.660535
10
38.708093
20
16.223027
10
39.402901
20
16.803510
10
40.100375
20
17.402504
10
40.800617
20
18.020541
10
41.503733
20
18.658171
10
42.209834
20
19.315957
10
42.919035
20
19.994479
10
43.631452
20
20.694334
10
44.347210
20
21.416136
10
45.066433
20
22.160515
10
45.789254
20
22.928122
10
46.515807
20
23.719624
10
47.246233
20
24.535711
10
47.980677
20
25.377091
10
48.719290
20
26.244493
10
49.462225
20
27.138669
10
50.209646
20
28.060393
10
50.961718
20
29.010463
10
51.718613
20
29.989700
0
LWPOLYLINE
8
PSY-RH
100
AcDbEntity
100
AcDbPolyline
90
87
70
0
10
-10.074764
20
0.802391
10
-9.439260
20
0.848620
10
-8.803688
20
0.897276
10
-8.168040
20
0.948471
10
-7.532310
20
1.002326
10
-6.896490
20
1.058965
10
-6.260571
20
1.118517
10
-5.624546
20
1.181116
10
-4.988403
20
1.246904
10
-4.352135
20
1.316026
10
-3.715729
20
1.388634
10
-3.079175
20
1.464886
10
-2.442461
20
1.544948
10
-1.805574
20
1.628989
10
-1.168501
20
1.717188
10
-0.531226
20
1.809730
10
0.106264
20
1.905043
10
0.743967
20
1.994487
10
1.381888
20
2.087647
10
2.020040
20
2.184658
10
2.658436
20
2.285657
10
3.297092
20
2.390786
10
3.936022
20
2.500191
10
4.575244
20
2.614024
10
5.214774
20
2.732438
10
5.854630
20
2.855594
10
6.494830
20
2.983657
10
7.135394
20
3.116795
10
7.776341
20
3.255183
10
8.417693
20
3.399001
10
9.059471
20
3.548432
10
9.701699
20
3.703667
10
10.344401
20
3.864902
10
10.987601
20
4.032336
10
11.631325
20
4.206178
10
12.275601
20
4.386640
10
12.920457
20
4.573941
10
13.565922
20
4.768305
10
14.212026
20
4.969965
10
14.858802
20
5.179158
10
15.506283
20
5.396129
10
16.154503
20
5.621130
10
16.803497
20
5.854419
10
17.453304
20
6.096262
10
18.103962
20
6.346934
10
18.755512
20
6.606714
10
19.407994
20
6.875892
10
20.061454
20
7.154765
10
20.715935
20
7.443639
10
21.371486
20
7.742827
10
22.028154
20
8.052651
10
22.685990
20
8.373444
10
23.345047
20
8.705547
10
24.005380
20
9.049309
10
24.667045
20
9.405091
10
25.330101
20
9.773264
10
25.994609
20
10.154207
10
26.660631
20
10.548312
10
27.328235
20
10.955982
10
27.997487
20
11.377629
10
28.668458
20
11.813679
10
29.341222
20
12.264569
10
30.015853
20
12.730748
10
30.692432
20
13.212679
10
31.371039
20
13.710836
10
32.051759
20
14.225709
10
32.734680
20
14.757800
10
33.419892
20
15.307626
10
34.107489
20
15.875720
10
34.797569
20
16.462627
10
35.490233
20
17.068913
10
36.185585
20
17.695155
10
36.883734
20
18.341952
10
37.584793
20
19.009915
10
38.288878
20
19.699678
10
38.996110
20
20.411891
10
39.706614
20
21.147225
10
40.420519
20
21.906369
10
41.137960
20
22.690035
10
41.859077
20
23.498954
10
42.584013
20
24.333883
10
43.312918
20
25.195598
10
44.045947
20
26.084903
10
44.783262
20
27.002623
10
45.525027
20
27.949612
10
46.271417
20
28.926750
10
47.022611
20
29.934944
0
LWPOLYLINE
8
PSY-RH
100
AcDbEntity
100
AcDbPolyline
90
81
70
0
10
-10.077721
20
0.963117
10
-9.442190
20
1.018622
10
-8.806577
20
1.077042
10
-8.170874
20
1.138513
10
-7.535072
20
1.203179
10
-6.899162
20
1.271191
10
-6.263133
20
1.342703
10
-5.626976
20
1.417878
10
-4.990679
20
1.496885
10
-4.354230
20
1.579900
10
-3.717617
20
1.667105
10
-3.080826
20
1.758692
10
-2.443842
20
1.854859
10
-1.806650
20
1.955811
10
-1.169235
20
2.061764
10
-0.531578
20
2.172940
10
0.106338
20
2.287453
10
0.744510
20
2.394920
10
1.382944
20
2.506860
10
2.021654
20
2.623433
10
2.660659
20
2.744806
10
3.299976
20
2.871151
10
3.939623
20
3.002644
10
4.579620
20
3.139467
10
5.219988
20
3.281809
10
5.860748
20
3.429863
10
6.501921
20
3.583827
10
7.143531
20
3.743907
10
7.785604
20
3.910313
10
8.428162
20
4.083264
10
9.071235
20
4.262983
10
9.714848
20
4.449700
10
10.359031
20
4.643653
10
11.003815
20
4.845086
10
11.649230
20
5.054250
10
12.295308
20
5.271404
10
12.942085
20
5.496814
10
13.589596
20
5.730753
10
14.237877
20
5.973505
10
14.886968
20
6.225358
10
15.536908
20
6.486610
10
16.187739
20
6.757570
10
16.839505
20
7.038553
10
17.492250
20
7.329884
10
18.146023
20
7.631897
10
18.800870
20
7.944936
10
19.456845
20
8.269355
10
20.113999
20
8.605518
10
20.772387
20
8.953799
10
21.432066
20
9.314584
10
22.093096
20
9.688269
10
22.755539
20
10.075263
10
23.419458
20
10.475983
10
24.084920
20
10.890864
10
24.751994
20
11.320347
10
25.420751
20
11.764892
10
26.091267
20
12.224967
10
26.763619
20
12.701057
10
27.437886
20
13.193661
10
28.114152
20
13.703291
10
28.792503
20
14.230476
10
29.473030
20
14.775757
10
30.155825
20
15.339696
10
30.840985
20
15.922868
10
31.528610
20
16.525866
10
32.218804
20
17.149302
10
32.911676
20
17.793804
10
33.607336
20
18.460021
10
34.305902
20
19.148621
10
35.007494
20
19.860292
10
35.712237
20
20.595743
10
36.420261
20
21.355706
10
37.131700
20
22.140935
10
37.846694
20
22.952206
10
38.565389
20
23.790322
10
39.287934
20
24.656110
10
40.014486
20
25.550422
10
40.745206
20
26.474139
10
41.480263
20
27.428171
10
42.219832
20
28.413454
10
42.964094
20
29.430959
0
LWPOLYLINE
8
PSY-RH
100
AcDbEntity
100
AcDbPolyline
90
76
70
0
10
-10.080680
20
1.123927
10
-9.445123
20
1.188717
10
-8.809469
20
1.256911
10
-8.173710
20
1.328670
10
-7.537836
20
1.404162
10
-6.901835
20
1.483561
10
-6.265697
20
1.567050
10
-5.629408
20
1.654820
10
-4.992956
20
1.747067
10
-4.356327
20
1.843997
10
-3.719506
20
1.945825
10
-3.082477
20
2.052775
10
-2.445224
20
2.165078
10
-1.807728
20
2.282976
10
-1.169970
20
2.406721
10
-0.531930
20
2.536574
10
0.106412
20
2.670332
10
0.745054
20
2.795868
10
1.384001
20
2.926636
10
2.023271
20
3.062825
10
2.662886
20
3.204631
10
3.302864
20
3.352255
10
3.943230
20
3.505905
10
4.584004
20
3.665796
10
5.225211
20
3.832148
10
5.866876
20
4.005188
10
6.509025
20
4.185151
10
7.151686
20
4.372278
10
7.794886
20
4.566818
10
8.438655
20
4.769026
10
9.083025
20
4.979168
10
9.728029
20
5.197515
10
10.373699
20
5.424346
10
11.020071
20
5.659949
10
11.667182
20
5.904623
10
12.315071
20
6.158671
10
12.963777
20
6.422410
10
13.613343
20
6.696162
10
14.263812
20
6.980262
10
14.915228
20
7.275054
10
15.567640
20
7.580890
10
16.221097
20
7.898135
10
16.875649
20
8.227163
10
17.531350
20
8.568362
10
18.188255
20
8.922127
10
18.846423
20
9.288868
10
19.505912
20
9.669007
10
20.166786
20
10.062977
10
20.829110
20
10.471224
10
21.492950
20
10.894208
10
22.158377
20
11.332402
10
22.825464
20
11.786295
10
23.494287
20
12.256388
10
24.164925
20
12.743198
10
24.837459
20
13.247258
10
25.511975
20
13.769117
10
26.188561
20
14.309339
10
26.867309
20
14.868507
10
27.548315
20
15.447220
10
28.231677
20
16.046097
10
28.917498
20
16.665775
10
29.605886
20
17.306911
10
30.296952
20
17.970182
10
30.990811
20
18.656285
10
31.687582
20
19.365940
10
32.387392
20
20.099890
10
33.090368
20
20.858900
10
33.796645
20
21.643759
10
34.506363
20
22.455284
10
35.219666
20
23.294315
10
35.936706
20
24.161720
10
36.657638
20
25.058395
10
37.382626
20
25.985268
10
38.111837
20
26.943293
10
38.845447
20
27.933459
10
39.583639
20
28.956786
0
LWPOLYLINE
8
PSY-RH
100
AcDbEntity
100
AcDbPolyline
90
73
70
0
10
-10.083641
20
1.284820
10
-9.448056
20
1.358905
10
-8.812362
20
1.436885
10
-8.176548
20
1.518944
10
-7.540601
20
1.605274
10
-6.904511
20
1.696076
10
-6.268262
20
1.791560
10
-5.631842
20
1.891942
10
-4.995236
20
1.997449
10
-4.358426
20
2.108318
10
-3.721398
20
2.224795
10
-3.084131
20
2.347135
10
-2.446607
20
2.475606
10
-1.808806
20
2.610484
10
-1.170705
20
2.752059
10
-0.532283
20
2.900632
10
0.106486
20
3.053681
10
0.745598
20
3.197331
10
1.385059
20
3.346976
10
2.024890
20
3.502836
10
2.665115
20
3.665133
10
3.305758
20
3.834101
10
3.946842
20
4.009978
10
4.588395
20
4.193012
10
5.230443
20
4.383456
10
5.873016
20
4.581573
10
6.516144
20
4.787632
10
7.159856
20
5.001912
10
7.804188
20
5.224701
10
8.449171
20
5.456293
10
9.094843
20
5.696994
10
9.741241
20
5.947117
10
10.388402
20
6.206986
10
11.036369
20
6.476934
10
11.685184
20
6.757305
10
12.334890
20
7.048452
10
12.985534
20
7.350741
10
13.637163
20
7.664545
10
14.289829
20
7.990254
10
14.943583
20
8.328264
10
15.598479
20
8.678987
10
16.254575
20
9.042845
10
16.911929
20
9.420274
10
17.570603
20
9.811724
10
18.230661
20
10.217656
10
18.892170
20
10.638548
10
19.555198
20
11.074890
10
20.219818
20
11.527189
10
20.886106
20
11.995965
10
21.554139
20
12.481757
10
22.223999
20
12.985117
10
22.895769
20
13.506617
10
23.569539
20
14.046846
10
24.245400
20
14.606409
10
24.923447
20
15.185932
10
25.603778
20
15.786060
10
26.286497
20
16.407458
10
26.971711
20
17.050811
10
27.659530
20
17.716827
10
28.350071
20
18.406237
10
29.043454
20
19.119792
10
29.739803
20
19.858270
10
30.439249
20
20.622473
10
31.141926
20
21.413229
10
31.847975
20
22.231394
10
32.557543
20
23.077849
10
33.270780
20
23.953508
10
33.987845
20
24.859312
10
34.708902
20
25.796235
10
35.434121
20
26.765283
10
36.163680
20
27.767498
10
36.897764
20
28.803955
10
37.636565
20
29.875767
0
LWPOLYLINE
8
PSY-RH
100
AcDbEntity
100
AcDbPolyline
90
69
70
0
10
-10.086603
20
1.445795
10
-9.450992
20
1.529186
10
-8.815257
20
1.616962
10
-8.179387
20
1.709334
10
-7.543369
20
1.806516
10
-6.907188
20
1.908737
10
-6.270830
20
2.016231
10
-5.634278
20
2.129244
10
-4.997517
20
2.248033
10
-4.360527
20
2.372863
10
-3.723290
20
2.504014
10
-3.085786
20
2.641773
10
-2.447992
20
2.786443
10
-1.809885
20
2.938337
10
-1.171442
20
3.097780
10
-0.532636
20
3.265114
10
0.106561
20
3.437500
10
0.746143
20
3.599310
10
1.386119
20
3.767883
10
2.026512
20
3.943466
10
2.667348
20
4.126314
10
3.308655
20
4.316690
10
3.950460
20
4.514864
10
4.592793
20
4.721117
10
5.235685
20
4.935736
10
5.879168
20
5.159020
10
6.523275
20
5.391273
10
7.168044
20
5.632814
10
7.813509
20
5.883967
10
8.459710
20
6.145068
10
9.106688
20
6.416465
10
9.754484
20
6.698513
10
10.403143
20
6.991581
10
11.052710
20
7.296048
10
11.703234
20
7.612306
10
12.354765
20
7.940758
10
13.007354
20
8.281818
10
13.661057
20
8.635917
10
14.315930
20
9.003494
10
14.972033
20
9.385006
10
15.629426
20
9.780921
10
16.288176
20
10.191723
10
16.948348
20
10.617911
10
17.610012
20
11.059999
10
18.273242
20
11.518517
10
18.938113
20
11.994012
10
19.604704
20
12.487046
10
20.273097
20
12.998201
10
20.943378
20
13.528077
10
21.615636
20
14.077291
10
22.289963
20
14.646481
10
22.966457
20
15.236305
10
23.645218
20
15.847442
10
24.326349
20
16.480591
10
25.009961
20
17.136476
10
25.696165
20
17.815842
10
26.385081
20
18.519460
10
27.076830
20
19.248124
10
27.771541
20
20.002656
10
28.469345
20
20.783903
10
29.170381
20
21.592741
10
29.874793
20
22.430076
10
30.582730
20
23.296842
10
31.294348
20
24.194006
10
32.009808
20
25.122569
10
32.729280
20
26.083562
10
33.452938
20
27.078056
10
34.180965
20
28.107157
10
34.913552
20
29.172009
0
LWPOLYLINE
8
PSY-SATURATION
100
AcDbEntity
100
AcDbPolyline
90
66
70
0
10
-10.089566
20
1.606854
10
-9.453928
20
1.699560
10
-8.818154
20
1.797144
10
-8.182228
20
1.899840
10
-7.546138
20
2.007888
10
-6.909867
20
2.121542
10
-6.273399
20
2.241063
10
-5.636716
20
2.366727
10
-4.999800
20
2.498818
10
-4.362630
20
2.637633
10
-3.725185
20
2.783483
10
-3.087442
20
2.936690
10
-2.449378
20
3.097590
10
-1.810966
20
3.266533
10
-1.172179
20
3.443884
10
-0.532989
20
3.630022
10
0.106635
20
3.821792
10
0.746689
20
4.001807
10
1.387180
20
4.189357
10
2.028136
20
4.384718
10
2.669585
20
4.588176
10
3.311557
20
4.800024
10
3.954084
20
5.020565
10
4.597199
20
5.250114
10
5.240936
20
5.488991
10
5.885330
20
5.737532
10
6.530421
20
5.996079
10
7.176247
20
6.264987
10
7.822850
20
6.544621
10
8.470272
20
6.835358
10
9.118560
20
7.137587
10
9.767759
20
7.451709
10
10.417920
20
7.778138
10
11.069094
20
8.117301
10
11.721334
20
8.469636
10
12.374696
20
8.835599
10
13.029239
20
9.215656
10
13.685024
20
9.610290
10
14.342115
20
10.019999
10
15.000578
20
10.445297
10
15.660482
20
10.886713
10
16.321899
20
11.344793
10
16.984904
20
11.820101
10
17.649577
20
12.313218
10
18.315998
20
12.824743
10
18.984253
20
13.355297
10
19.654431
20
13.905516
10
20.326623
20
14.476061
10
21.000927
20
15.067612
10
21.677443
20
15.680870
10
22.356274
20
16.316562
10
23.037531
20
16.975435
10
23.721325
20
17.658262
10
24.407776
20
18.365842
10
25.097006
20
19.098999
10
25.789142
20
19.858586
10
26.484319
20
20.645484
10
27.182675
20
21.460601
10
27.884354
20
22.304879
10
28.589508
20
23.179291
10
29.298292
20
24.084843
10
30.010869
20
25.022576
10
30.727411
20
25.993565
10
31.448093
20
26.998926
10
32.173100
20
28.039813
10
32.902625
20
29.117419
0
LWPOLYLINE
8
PSY-WETBULB
100
AcDbEntity
100
AcDbPolyline
90
8
70
0
10
-10.089513
20
1.603986
10
-9.448408
20
1.379295
10
-8.807827
20
1.154789
10
-8.167771
20
0.930466
10
-7.528239
20
0.706327
10
-6.889231
20
0.482371
10
-6.250745
20
0.258598
10
-5.612780
20
0.035008
0
LWPOLYLINE
8
PSY-WETBULB
100
AcDbEntity
100
AcDbPolyline
90
8
70
0
10
-7.542280
20
1.727349
10
-6.902076
20
1.502659
10
-6.262395
20
1.278153
10
-5.623239
20
1.053831
10
-4.984605
20
0.829692
10
-4.346494
20
0.605737
10
-3.708905
20
0.381965
10
-3.071837
20
0.158376
0
LWPOLYLINE
8
PSY-WETBULB
100
AcDbEntity
100
AcDbPolyline
90
10
70
0
10
-5.634284
20
2.129778
10
-4.994393
20
1.904882
10
-4.355027
20
1.680171
10
-3.716184
20
1.455643
10
-3.077863
20
1.231300
10
-2.440065
20
1.007140
10
-1.802789
20
0.783163
10
-1.166034
20
0.559370
10
-0.529799
20
0.335759
10
0.105916
20
0.112331
0
LWPOLYLINE
8
PSY-WETBULB
100
AcDbEntity
100
AcDbPolyline
90
12
70
0
10
-3.723908
20
2.595091
10
-3.084259
20
2.369964
10
-2.445134
20
2.145021
10
-1.806533
20
1.920263
10
-1.168455
20
1.695689
10
-0.530899
20
1.471298
10
0.106136
20
1.247091
10
0.742650
20
1.023068
10
1.378644
20
0.799227
10
2.014118
20
0.575569
10
2.649073
20
0.352094
10
3.283510
20
0.128802
0
LWPOLYLINE
8
PSY-WETBULB
100
AcDbEntity
100
AcDbPolyline
90
14
70
0
10
-1.810526
20
3.132986
10
-1.171037
20
2.907598
10
-0.532071
20
2.682394
10
0.106371
20
2.457375
10
0.744290
20
2.232541
10
1.381687
20
2.007890
10
2.018563
20
1.783423
10
2.654918
20
1.559139
10
3.290753
20
1.335039
10
3.926068
20
1.111122
10
4.560864
20
0.887388
10
5.195142
20
0.663837
10
5.828903
20
0.440468
10
6.462146
20
0.217281
0
LWPOLYLINE
8
PSY-WETBULB
100
AcDbEntity
100
AcDbPolyline
90
15
70
0
10
0.106621
20
3.749852
10
0.746000
20
3.494086
10
1.384786
20
3.238558
10
2.022978
20
2.983266
10
2.660579
20
2.728212
10
3.297588
20
2.473394
10
3.934006
20
2.218813
10
4.569835
20
1.964467
10
5.205074
20
1.710357
10
5.839726
20
1.456482
10
6.473790
20
1.202842
10
7.107268
20
0.949437
10
7.740160
20
0.696266
10
8.372468
20
0.443328
10
9.004191
20
0.190625
0
LWPOLYLINE
8
PSY-WETBULB
100
AcDbEntity
100
AcDbPolyline
90
18
70
0
10
2.028136
20
4.384718
10
2.667357
20
4.128156
10
3.305984
20
3.871833
10
3.944017
20
3.615748
10
4.581456
20
3.359901
10
5.218303
20
3.104291
10
5.854559
20
2.848920
10
6.490224
20
2.593785
10
7.125299
20
2.338887
10
7.759785
20
2.084226
10
8.393682
20
1.829801
10
9.026992
20
1.575611
10
9.659716
20
1.321657
10
10.291853
20
1.067938
10
10.923406
20
0.814454
10
11.554374
20
0.561204
10
12.184759
20
0.308189
10
12.814562
20
0.055407
0
LWPOLYLINE
8
PSY-WETBULB
100
AcDbEntity
100
AcDbPolyline
90
19
70
0
10
4.593814
20
4.843706
10
5.232371
20
4.586547
10
5.870332
20
4.329627
10
6.507700
20
4.072947
10
7.144474
20
3.816505
10
7.780655
20
3.560303
10
8.416244
20
3.304338
10
9.051242
20
3.048612
10
9.685651
20
2.793123
10
10.319469
20
2.537872
10
10.952700
20
2.282857
10
11.585342
20
2.028079
10
12.217398
20
1.773538
10
12.848868
20
1.519233
10
13.479752
20
1.265163
10
14.110052
20
1.011329
10
14.739768
20
0.757730
10
15.368902
20
0.504365
10
15.997453
20
0.251235
0
LWPOLYLINE
8
PSY-WETBULB
100
AcDbEntity
100
AcDbPolyline
90
23
70
0
10
6.526337
20
5.650424
10
7.164923
20
5.392382
10
7.802913
20
5.134582
10
8.440308
20
4.877022
10
9.077108
20
4.619703
10
9.713313
20
4.362623
10
10.348926
20
4.105784
10
10.983947
20
3.849183
10
11.618376
20
3.592821
10
12.252215
20
3.336698
10
12.885464
20
3.080814
10
13.518125
20
2.825167
10
14.150197
20
2.569758
10
14.781682
20
2.314586
10
15.412581
20
2.059651
10
16.042893
20
1.804953
10
16.672622
20
1.550491
10
17.301766
20
1.296265
10
17.930327
20
1.042274
10
18.558306
20
0.788519
10
19.185703
20
0.534999
10
19.812519
20
0.281714
10
20.438756
20
0.028663
0
LWPOLYLINE
8
PSY-WETBULB
100
AcDbEntity
100
AcDbPolyline
90
26
70
0
10
8.466044
20
6.558999
10
9.104771
20
6.300025
10
9.742900
20
6.041293
10
10.380433
20
5.782803
10
11.017370
20
5.524554
10
11.653711
20
5.266547
10
12.289459
20
5.008781
10
12.924613
20
4.751255
10
13.559174
20
4.493970
10
14.193143
20
4.236925
10
14.826522
20
3.980119
10
15.459310
20
3.723552
10
16.091509
20
3.467225
10
16.723119
20
3.211136
10
17.354142
20
2.955285
10
17.984578
20
2.699673
10
18.614428
20
2.444298
10
19.243692
20
2.189160
10
19.872373
20
1.934259
10
20.500469
20
1.679595
10
21.127983
20
1.425167
10
21.754915
20
1.170975
10
22.381266
20
0.917019
10
23.007036
20
0.663298
10
23.632227
20
0.409812
10
24.256839
20
0.156561
0
LWPOLYLINE
8
PSY-WETBULB
100
AcDbEntity
100
AcDbPolyline
90
30
70
0
10
10.414221
20
7.581226
10
11.053213
20
7.321262
10
11.691607
20
7.061541
10
12.329402
20
6.802064
10
12.966600
20
6.542830
10
13.603201
20
6.283838
10
14.239206
20
6.025089
10
14.874617
20
5.766582
10
15.509434
20
5.508316
10
16.143657
20
5.250292
10
16.777288
20
4.992509
10
17.410327
20
4.734966
10
18.042776
20
4.477664
10
18.674635
20
4.220602
10
19.305905
20
3.963779
10
19.936587
20
3.707196
10
20.566681
20
3.450852
10
21.196188
20
3.194746
10
21.825110
20
2.938879
10
22.453447
20
2.683250
10
23.081199
20
2.427858
10
23.708369
20
2.172704
10
24.334956
20
1.917786
10
24.960961
20
1.663106
10
25.586385
20
1.408661
10
26.211229
20
1.154453
10
26.835494
20
0.900480
10
27.459180
20
0.646743
10
28.082289
20
0.393241
10
28.704821
20
0.139973
0
LWPOLYLINE
8
PSY-WETBULB
100
AcDbEntity
100
AcDbPolyline
90
34
70
0
10
12.372346
20
8.730112
10
13.011743
20
8.469094
10
13.650539
20
8.208322
10
14.288735
20
7.947794
10
14.926332
20
7.687510
10
15.563332
20
7.427471
10
16.199733
20
7.167676
10
16.835539
20
6.908124
10
17.470749
20
6.648815
10
18.105364
20
6.389750
10
18.739385
20
6.130926
10
19.372813
20
5.872345
10
20.005649
20
5.614005
10
20.637894
20
5.355907
10
21.269548
20
5.098050
10
21.900612
20
4.840434
10
22.531087
20
4.583058
10
23.160974
20
4.325922
10
23.790274
20
4.069026
10
24.418987
20
3.812369
10
25.047115
20
3.555951
10
25.674658
20
3.299773
10
26.301617
20
3.043832
10
26.927993
20
2.788130
10
27.553786
20
2.532665
10
28.178998
20
2.277438
10
28.803629
20
2.022448
10
29.427680
20
1.767694
10
30.051152
20
1.513177
10
30.674045
20
1.258896
10
31.296361
20
1.004851
10
31.918101
20
0.751042
10
32.539264
20
0.497467
10
33.159852
20
0.244127
0
LWPOLYLINE
8
PSY-WETBULB
100
AcDbEntity
100
AcDbPolyline
90
39
70
0
10
14.342115
20
10.019999
10
14.982070
20
9.757858
10
15.621423
20
9.495963
10
16.260175
20
9.234314
10
16.898326
20
8.972911
10
17.535877
20
8.711754
10
18.172829
20
8.450843
10
18.809183
20
8.190176
10
19.444940
20
7.929754
10
20.080100
20
7.669576
10
20.714664
20
7.409643
10
21.348634
20
7.149953
10
21.982010
20
6.890506
10
22.614793
20
6.631302
10
23.246984
20
6.372341
10
23.878583
20
6.113622
10
24.509592
20
5.855145
10
25.140011
20
5.596909
10
25.769841
20
5.338915
10
26.399083
20
5.081162
10
27.027737
20
4.823649
10
27.655806
20
4.566376
10
28.283288
20
4.309344
10
28.910186
20
4.052551
10
29.536499
20
3.795997
10
30.162230
20
3.539682
10
30.787378
20
3.283605
10
31.411944
20
3.027767
10
32.035930
20
2.772167
10
32.659336
20
2.516804
10
33.282163
20
2.261679
10
33.904411
20
2.006790
10
34.526082
20
1.752138
10
35.147176
20
1.497722
10
35.767694
20
1.243542
10
36.387637
20
0.989598
10
37.007006
20
0.735889
10
37.625801
20
0.482415
10
38.244024
20
0.229175
0
LWPOLYLINE
8
PSY-WETBULB
100
AcDbEntity
100
AcDbPolyline
90
44
70
0
10
16.966150
20
11.203363
10
17.606232
20
10.940267
10
18.245711
20
10.677419
10
18.884586
20
10.414819
10
19.522861
20
10.152466
10
20.160534
20
9.890360
10
20.797608
20
9.628501
10
21.434082
20
9.366888
10
22.069958
20
9.105520
10
22.705237
20
8.844399
10
23.339919
20
8.583522
10
23.974005
20
8.322891
10
24.607496
20
8.062504
10
25.240394
20
7.802361
10
25.872698
20
7.542462
10
26.504409
20
7.282807
10
27.135530
20
7.023394
10
27.766059
20
6.764225
10
28.395998
20
6.505298
10
29.025349
20
6.246613
10
29.654111
20
5.988170
10
30.282285
20
5.729968
10
30.909873
20
5.472008
10
31.536875
20
5.214288
10
32.163293
20
4.956809
10
32.789126
20
4.699569
10
33.414375
20
4.442570
10
34.039042
20
4.185810
10
34.663128
20
3.929289
10
35.286632
20
3.673007
10
35.909557
20
3.416964
10
36.531902
20
3.161158
10
37.153669
20
2.905590
10
37.774858
20
2.650260
10
38.395470
20
2.395167
10
39.015506
20
2.140310
10
39.634967
20
1.885690
10
40.253853
20
1.631307
10
40.872166
20
1.377158
10
41.489906
20
1.123246
10
42.107074
20
0.869568
10
42.723670
20
0.616126
10
43.339697
20
0.362918
10
43.955153
20
0.109944
0
LWPOLYLINE
8
PSY-WETBULB
100
AcDbEntity
100
AcDbPolyline
90
50
70
0
10
18.966213
20
12.823054
10
19.607215
20
12.558670
10
20.247611
20
12.294536
10
20.887403
20
12.030652
10
21.526591
20
11.767016
10
22.165176
20
11.503629
10
22.803159
20
11.240490
10
23.440541
20
10.977599
10
24.077322
20
10.714956
10
24.713504
20
10.452560
10
25.349088
20
10.190411
10
25.984073
20
9.928509
10
26.618462
20
9.666852
10
27.252255
20
9.405442
10
27.885452
20
9.144277
10
28.518055
20
8.883357
10
29.150065
20
8.622683
10
29.781481
20
8.362252
10
30.412306
20
8.102066
10
31.042540
20
7.842123
10
31.672183
20
7.582424
10
32.301237
20
7.322968
10
32.929703
20
7.063755
10
33.557580
20
6.804785
10
34.184871
20
6.546056
10
34.811575
20
6.287569
10
35.437695
20
6.029324
10
36.063229
20
5.771319
10
36.688181
20
5.513556
10
37.312549
20
5.256032
10
37.936335
20
4.998749
10
38.559540
20
4.741706
10
39.182165
20
4.484901
10
39.804210
20
4.228336
10
40.425676
20
3.972010
10
41.046564
20
3.715922
10
41.666875
20
3.460072
10
42.286610
20
3.204460
10
42.905769
20
2.949085
10
43.524353
20
2.693948
10
44.142364
20
2.439047
10
44.759801
20
2.184382
10
45.376666
20
1.929954
10
45.992959
20
1.675761
10
46.608682
20
1.421804
10
47.223834
20
1.168082
10
47.838418
20
0.914594
10
48.452432
20
0.661341
10
49.065880
20
0.408322
10
49.678760
20
0.155537
0
LWPOLYLINE
8
PSY-WETBULB
100
AcDbEntity
100
AcDbPolyline
90
48
70
0
10
20.984800
20
14.636189
10
21.626934
20
14.370420
10
22.268460
20
14.104903
10
22.909379
20
13.839638
10
23.549692
20
13.574623
10
24.189400
20
13.309858
10
24.828504
20
13.045344
10
25.467004
20
12.781079
10
26.104902
20
12.517064
10
26.742198
20
12.253298
10
27.378893
20
11.989781
10
28.014988
20
11.726511
10
28.650484
20
11.463490
10
29.285382
20
11.200717
10
29.919682
20
10.938191
10
30.553385
20
10.675911
10
31.186493
20
10.413879
10
31.819006
20
10.152092
10
32.450925
20
9.890551
10
33.082250
20
9.629256
10
33.712983
20
9.368207
10
34.343124
20
9.107402
10
34.972675
20
8.846841
10
35.601635
20
8.586525
10
36.230007
20
8.326452
10
36.857790
20
8.066623
10
37.484986
20
7.807037
10
38.111595
20
7.547694
10
38.737618
20
7.288594
10
39.363057
20
7.029735
10
39.987911
20
6.771119
10
40.612182
20
6.512743
10
41.235870
20
6.254609
10
41.858977
20
5.996716
10
42.481502
20
5.739063
10
43.103448
20
5.481650
10
43.724814
20
5.224477
10
44.345602
20
4.967543
10
44.965812
20
4.710849
10
45.585445
20
4.454393
10
46.204502
20
4.198175
10
46.822984
20
3.942196
10
47.440891
20
3.686454
10
48.058225
20
3.430950
10
48.674986
20
3.175683
10
49.291175
20
2.920653
10
49.906793
20
2.665859
10
50.521840
20
2.411301
0
LWPOLYLINE
8
PSY-WETBULB
100
AcDbEntity
100
AcDbPolyline
90
45
70
0
10
23.024805
20
16.664044
10
23.668306
20
16.396784
10
24.311197
20
16.129777
10
24.953478
20
15.863023
10
25.595151
20
15.596522
10
26.236216
20
15.330273
10
26.876675
20
15.064276
10
27.516528
20
14.798531
10
28.155775
20
14.533037
10
28.794419
20
14.267794
10
29.432459
20
14.002802
10
30.069896
20
13.738060
10
30.706732
20
13.473568
10
31.342967
20
13.209325
10
31.978603
20
12.945331
10
32.613639
20
12.681587
10
33.248077
20
12.418090
10
33.881918
20
12.154842
10
34.515162
20
11.891842
10
35.147810
20
11.629089
10
35.779864
20
11.366583
10
36.411323
20
11.104323
10
37.042189
20
10.842310
10
37.672463
20
10.580544
10
38.302146
20
10.319022
10
38.931238
20
10.057746
10
39.559740
20
9.796715
10
40.187653
20
9.535929
10
40.814977
20
9.275387
10
41.441715
20
9.015089
10
42.067865
20
8.755035
10
42.693431
20
8.495223
10
43.318411
20
8.235655
10
43.942807
20
7.976329
10
44.566620
20
7.717246
10
45.189850
20
7.458404
10
45.812499
20
7.199804
10
46.434567
20
6.941446
10
47.056055
20
6.683328
10
47.676964
20
6.425450
10
48.297295
20
6.167813
10
48.917047
20
5.910416
10
49.536224
20
5.653258
10
50.154824
20
5.396340
10
50.772849
20
5.139660
0
LWPOLYLINE
8
PSY-WETBULB
100
AcDbEntity
100
AcDbPolyline
90
42
70
0
10
25.089517
20
18.930158
10
25.734646
20
18.661286
10
26.379163
20
18.392670
10
27.023067
20
18.124309
10
27.666360
20
17.856203
10
28.309043
20
17.588351
10
28.951116
20
17.320753
10
29.592580
20
17.053409
10
30.233437
20
16.786318
10
30.873687
20
16.519480
10
31.513330
20
16.252895
10
32.152369
20
15.986562
10
32.790803
20
15.720480
10
33.428634
20
15.454651
10
34.065862
20
15.189072
10
34.702489
20
14.923744
10
35.338514
20
14.658667
10
35.973939
20
14.393840
10
36.608766
20
14.129262
10
37.242993
20
13.864934
10
37.876624
20
13.600855
10
38.509657
20
13.337025
10
39.142095
20
13.073443
10
39.773938
20
12.810109
10
40.405187
20
12.547022
10
41.035842
20
12.284183
10
41.665905
20
12.021591
10
42.295376
20
11.759245
10
42.924256
20
11.497145
10
43.552547
20
11.235292
10
44.180248
20
10.973684
10
44.807361
20
10.712321
10
45.433886
20
10.451203
10
46.059825
20
10.190330
10
46.685178
20
9.929700
10
47.309946
20
9.669315
10
47.934130
20
9.409173
10
48.557730
20
9.149274
10
49.180748
20
8.889618
10
49.803184
20
8.630204
10
50.425039
20
8.371033
10
51.046313
20
8.112103
0
LWPOLYLINE
8
PSY-WETBULB
100
AcDbEntity
100
AcDbPolyline
90
39
70
0
10
27.182675
20
21.460601
10
27.829722
20
21.189986
10
28.476153
20
20.919628
10
29.121969
20
20.649528
10
29.767171
20
20.379685
10
30.411759
20
20.110098
10
31.055735
20
19.840768
10
31.699099
20
19.571693
10
32.341853
20
19.302874
10
32.983996
20
19.034310
10
33.625530
20
18.766000
10
34.266456
20
18.497945
10
34.906775
20
18.230144
10
35.546488
20
17.962597
10
36.185594
20
17.695302
10
36.824096
20
17.428261
10
37.461995
20
17.161472
10
38.099290
20
16.894936
10
38.735983
20
16.628651
10
39.372074
20
16.362618
10
40.007565
20
16.096836
10
40.642457
20
15.831305
10
41.276750
20
15.566024
10
41.910445
20
15.300993
10
42.543542
20
15.036212
10
43.176044
20
14.771681
10
43.807950
20
14.507398
10
44.439262
20
14.243364
10
45.069980
20
13.979578
10
45.700105
20
13.716041
10
46.329638
20
13.452751
10
46.958579
20
13.189708
10
47.586931
20
12.926912
10
48.214693
20
12.664362
10
48.841866
20
12.402059
10
49.468451
20
12.140002
10
50.094449
20
11.878190
10
50.719861
20
11.616624
10
51.344688
20
11.355302
0
LWPOLYLINE
8
PSY-WETBULB
100
AcDbEntity
100
AcDbPolyline
90
35
70
0
10
29.957815
20
24.011799
10
30.606482
20
23.739553
10
31.254530
20
23.467567
10
31.901960
20
23.195840
10
32.548774
20
22.924372
10
33.194971
20
22.653163
10
33.840554
20
22.382212
10
34.485523
20
22.111518
10
35.129878
20
21.841082
10
35.773621
20
21.570903
10
36.416753
20
21.300980
10
37.059273
20
21.031314
10
37.701184
20
20.761903
10
38.342487
20
20.492749
10
38.983181
20
20.223849
10
39.623268
20
19.955204
10
40.262749
20
19.686814
10
40.901624
20
19.418678
10
41.539895
20
19.150795
10
42.177562
20
18.883166
10
42.814626
20
18.615790
10
43.451088
20
18.348667
10
44.086949
20
18.081796
10
44.722209
20
17.815177
10
45.356871
20
17.548809
10
45.990933
20
17.282693
10
46.624398
20
17.016827
10
47.257266
20
16.751212
10
47.889538
20
16.485848
10
48.521214
20
16.220733
10
49.152297
20
15.955867
10
49.782785
20
15.691251
10
50.412681
20
15.426883
10
51.041985
20
15.162764
10
51.670698
20
14.898893
0
LWPOLYLINE
8
PSY-WETBULB
100
AcDbEntity
100
AcDbPolyline
90
32
70
0
10
32.123790
20
27.158873
10
32.775047
20
26.884576
10
33.425682
20
26.610541
10
34.075696
20
26.336768
10
34.725090
20
26.063256
10
35.373863
20
25.790006
10
36.022018
20
25.517016
10
36.669556
20
25.244286
10
37.316476
20
24.971815
10
37.962780
20
24.699605
10
38.608470
20
24.427653
10
39.253545
20
24.155960
10
39.898006
20
23.884526
10
40.541855
20
23.613349
10
41.185092
20
23.342430
10
41.827719
20
23.071769
10
42.469735
20
22.801364
10
43.111143
20
22.531216
10
43.751942
20
22.261324
10
44.392134
20
21.991687
10
45.031720
20
21.722307
10
45.670700
20
21.453181
10
46.309075
20
21.184310
10
46.946846
20
20.915693
10
47.584015
20
20.647330
10
48.220581
20
20.379221
10
48.856546
20
20.111365
10
49.491910
20
19.843762
10
50.126675
20
19.576412
10
50.760841
20
19.309314
10
51.394409
20
19.042467
10
52.027380
20
18.775872
0
LWPOLYLINE
8
PSY-VOLUME
100
AcDbEntity
100
AcDbPolyline
90
2
70
0
10
-5.629285
20
1.642803
10
-4.978640
20
0.174341
0
LWPOLYLINE
8
PSY-VOLUME
100
AcDbEntity
100
AcDbPolyline
90
3
70
0
10
0.745730
20
3.294751
10
1.381305
20
1.856274
10
2.013562
20
0.424400
0
LWPOLYLINE
8
PSY-VOLUME
100
AcDbEntity
100
AcDbPolyline
90
4
70
0
10
7.158174
20
4.872230
10
7.779273
20
3.462555
10
8.397192
20
2.059207
10
9.011954
20
0.662142
0
LWPOLYLINE
8
PSY-VOLUME
100
AcDbEntity
100
AcDbPolyline
90
6
70
0
10
12.995318
20
7.768255
10
13.605570
20
6.380163
10
14.212753
20
4.998177
10
14.816887
20
3.622257
10
15.417993
20
2.252363
10
16.016089
20
0.888456
0
LWPOLYLINE
8
PSY-VOLUME
100
AcDbEntity
100
AcDbPolyline
90
9
70
0
10
18.286528
20
11.924404
10
18.889215
20
10.551363
10
19.488918
20
9.184258
10
20.085658
20
7.823050
10
20.679454
20
6.467701
10
21.270323
20
5.118174
10
21.858286
20
3.774430
10
22.443360
20
2.436433
10
23.025565
20
1.104146
0
LWPOLYLINE
8
PSY-VOLUME
100
AcDbEntity
100
AcDbPolyline
90
13
70
0
10
23.649051
20
15.938660
10
24.244279
20
14.580461
10
24.836607
20
13.228032
10
25.426052
20
11.881339
10
26.012633
20
10.540344
10
26.596368
20
9.205012
10
27.177275
20
7.875306
10
27.755372
20
6.551191
10
28.330677
20
5.232632
10
28.903207
20
3.919594
10
29.472980
20
2.612042
10
30.040012
20
1.309942
10
30.604321
20
0.013261
0
LWPOLYLINE
8
PSY-VOLUME
100
AcDbEntity
100
AcDbPolyline
90
17
70
0
10
28.488582
20
21.167392
10
29.079299
20
19.818169
10
29.667176
20
18.474595
10
30.252232
20
17.136635
10
30.834483
20
15.804254
10
31.413949
20
14.477417
10
31.990645
20
13.156090
10
32.564589
20
11.840238
10
33.135799
20
10.529827
10
33.704291
20
9.224823
10
34.270081
20
7.925194
10
34.833188
20
6.630906
10
35.393626
20
5.341926
10
35.951413
20
4.058222
10
36.506565
20
2.779761
10
37.059097
20
1.506512
10
37.609026
20
0.238442
0
LWPOLYLINE
8
PSY-VOLUME
100
AcDbEntity
100
AcDbPolyline
90
22
70
0
10
32.815365
20
27.590216
10
33.404340
20
26.244458
10
33.990518
20
24.904265
10
34.573916
20
23.569603
10
35.154552
20
22.240437
10
35.732443
20
20.916733
10
36.307605
20
19.598458
10
36.880055
20
18.285579
10
37.449810
20
16.978062
10
38.016886
20
15.675875
10
38.581300
20
14.378985
10
39.143068
20
13.087360
10
39.702206
20
11.800968
10
40.258730
20
10.519777
10
40.812655
20
9.243756
10
41.363998
20
7.972873
10
41.912774
20
6.707098
10
42.458998
20
5.446399
10
43.002687
20
4.190747
10
43.543854
20
2.940111
10
44.082515
20
1.694461
10
44.618685
20
0.453767
0
LWPOLYLINE
8
PSY-VOLUME
100
AcDbEntity
100
AcDbPolyline
90
22
70
0
10
38.974676
20
29.845238
10
39.553574
20
28.519529
10
40.129768
20
27.199201
10
40.703273
20
25.884222
10
41.274107
20
24.574560
10
41.842284
20
23.270183
10
42.407821
20
21.971058
10
42.970734
20
20.677155
10
43.531039
20
19.388441
10
44.088751
20
18.104885
10
44.643886
20
16.826457
10
45.196460
20
15.553126
10
45.746487
20
14.284861
10
46.293983
20
13.021632
10
46.838963
20
11.763410
10
47.381441
20
10.510164
10
47.921433
20
9.261866
10
48.458954
20
8.018485
10
48.994017
20
6.779994
10
49.526638
20
5.546362
10
50.056830
20
4.317562
10
50.584608
20
3.093565
0
LWPOLYLINE
8
PSY-VOLUME
100
AcDbEntity
100
AcDbPolyline
90
11
70
0
10
46.310405
20
29.411791
10
46.874289
20
28.115955
10
47.435587
20
26.825265
10
47.994314
20
25.539690
10
48.550485
20
24.259200
10
49.104116
20
22.983765
10
49.655222
20
21.713354
10
50.203817
20
20.447939
10
50.749916
20
19.187489
10
51.293535
20
17.931976
10
51.834686
20
16.681371
0
LINE
8
PSY-PROCESS
10
17.884256
20
8.492063
11
30.648762
21
8.492063
0
POINT
8
PSY-POINTS
10
35.840801
20
16.666667
0
TEXT
8
PSY-POINTS
10
36.240801
20
17.066667
40
0.8
1
OA
0
POINT
8
PSY-POINTS
10
17.884256
20
8.492063
0
TEXT
8
PSY-POINTS
10
18.284256
20
8.892063
40
0.8
1
RA
0
ENDSEC
0
EOF
